<?xml version="1.0" standalone="no"?>
<!DOCTYPE svg PUBLIC "-//W3C//DTD SVG 20010904//EN"
 "http://www.w3.org/TR/2001/REC-SVG-20010904/DTD/svg10.dtd">
<svg version="1.0" xmlns="http://www.w3.org/2000/svg"
 width="187.000000pt" height="60.000000pt" viewBox="0 0 187.000000 60.000000"
 preserveAspectRatio="xMidYMid meet">

<g transform="translate(0.000000,60.000000) scale(0.100000,-0.100000)"
fill="#000000" stroke="none">
<path d="M182 544 c-93 -46 -152 -141 -152 -244 0 -216 238 -344 422 -228 189
120 153 413 -61 486 -61 21 -151 15 -209 -14z m208 -134 c0 -30 7 -61 16 -76
11 -16 15 -36 11 -59 -4 -24 -2 -35 7 -35 18 0 58 -58 54 -78 -6 -34 -43 -25
-73 18 -21 30 -33 39 -47 35 -10 -4 -32 1 -50 9 -20 11 -58 16 -110 16 l-78 0
0 110 0 110 135 0 135 0 0 -50z"/>
<path d="M140 345 l0 -95 64 0 65 0 -2 35 c-2 37 -6 42 -24 24 -18 -18 -33 0
-33 41 0 49 10 55 52 31 23 -13 45 -17 71 -14 34 5 37 7 37 39 l0 34 -115 0
-115 0 0 -95z"/>
<path d="M230 345 c0 -23 2 -24 20 -13 24 15 25 24 4 32 -23 9 -24 8 -24 -19z"/>
<path d="M294 324 c-37 -55 25 -117 80 -80 30 19 35 65 10 90 -25 25 -71 20
-90 -10z"/>
<path d="M415 210 c-8 -13 22 -50 42 -50 20 0 16 14 -11 39 -16 15 -26 19 -31
11z"/>
<path d="M786 401 c-4 -6 -14 -34 -22 -62 -9 -28 -18 -49 -21 -46 -2 3 -10 27
-17 54 -18 70 -36 62 -58 -26 -19 -73 -18 -108 2 -96 5 3 10 15 10 25 0 10 5
31 11 47 l12 28 11 -45 c15 -57 36 -58 56 -2 8 23 18 42 21 42 4 0 10 -17 14
-38 7 -43 21 -70 31 -60 8 9 -23 169 -35 181 -5 5 -12 4 -15 -2z"/>
<path d="M1530 380 c0 -27 -3 -30 -29 -30 -53 0 -84 -53 -57 -95 13 -20 25
-25 61 -25 l45 0 0 90 c0 53 -4 90 -10 90 -5 0 -10 -13 -10 -30z m-10 -90 c0
-33 -12 -44 -40 -35 -25 8 -27 50 -3 63 26 15 43 3 43 -28z"/>
<path d="M1120 390 c0 -5 7 -10 15 -10 8 0 15 5 15 10 0 6 -7 10 -15 10 -8 0
-15 -4 -15 -10z"/>
<path d="M876 328 c-9 -12 -16 -33 -16 -45 0 -24 32 -63 50 -63 18 0 60 48 60
67 0 30 -29 63 -55 63 -13 0 -31 -10 -39 -22z m62 -42 c-2 -23 -8 -31 -23 -31
-23 0 -33 38 -15 60 19 23 41 6 38 -29z"/>
<path d="M990 336 c0 -22 38 -106 48 -106 10 0 52 90 52 109 0 24 -19 9 -31
-24 -7 -19 -16 -35 -20 -35 -4 0 -13 16 -19 35 -12 35 -30 48 -30 21z"/>
<path d="M1120 290 c0 -33 4 -60 10 -60 6 0 10 27 10 60 0 33 -4 60 -10 60 -6
0 -10 -27 -10 -60z"/>
<path d="M1196 334 c-26 -25 -31 -62 -11 -84 22 -25 77 -26 96 -3 13 15 11 16
-21 10 -19 -4 -41 -3 -49 2 -11 7 -6 13 22 25 21 8 40 23 44 32 12 32 -53 47
-81 18z m54 -12 c0 -5 -11 -14 -25 -20 -26 -12 -33 -4 -13 16 14 14 38 16 38
4z"/>
<path d="M1312 286 c3 -67 19 -82 28 -26 8 44 17 60 36 60 10 0 14 -12 14 -44
0 -25 4 -47 9 -51 15 -9 18 7 12 65 l-6 55 -48 1 -48 2 3 -62z"/>
<path d="M1599 333 c-26 -30 -30 -54 -14 -79 15 -24 54 -31 89 -18 29 11 17
26 -16 20 -54 -10 -65 8 -18 29 31 14 40 23 38 39 -4 28 -58 34 -79 9z m47
-18 c-27 -21 -53 -20 -36 0 7 8 22 15 34 15 21 -1 21 -1 2 -15z"/>
<path d="M1714 325 c-8 -32 -1 -100 11 -100 6 0 11 19 13 43 3 45 24 64 45 43
18 -18 29 -13 25 12 -3 19 -9 22 -46 23 -36 1 -43 -3 -48 -21z"/>
</g>
</svg>
